<?xml version="1.0" encoding="UTF-8" standalone="no"?>
<!DOCTYPE svg PUBLIC "-//W3C//DTD SVG 1.1//EN" "http://www.w3.org/Graphics/SVG/1.1/DTD/svg11.dtd">
<svg version="1.1" xmlns="http://www.w3.org/2000/svg" xmlns:xlink="http://www.w3.org/1999/xlink" preserveAspectRatio="xMidYMid meet" viewBox="0 0 45 55" width="45" height="55"><defs><path d="M22.5 39.65C12.63 39.65 4.61 31.64 4.61 21.77C4.61 11.9 12.63 3.88 22.5 3.88C32.37 3.88 40.39 11.9 40.39 21.77C40.39 31.64 32.37 39.65 22.5 39.65Z" id="bMbCFfJ4F"></path><path d="M22.5 39.65C12.63 39.65 4.61 31.64 4.61 21.77C4.61 11.9 12.63 3.88 22.5 3.88C32.37 3.88 40.39 11.9 40.39 21.77C40.39 31.64 32.37 39.65 22.5 39.65Z" id="b1Asnx7vDG"></path><path d="M22.5 37.13C14.02 37.13 7.14 30.25 7.14 21.77C7.14 13.29 14.02 6.4 22.5 6.4C30.98 6.4 37.86 13.29 37.86 21.77C37.86 30.25 30.98 37.13 22.5 37.13Z" id="aewebdr7x"></path><path d="M30.21 38.36L22.5 38.36L14.79 38.36L18.64 44.94L22.5 51.52L26.35 44.94L30.21 38.36Z" id="a2qQn7WHAf"></path><path d="M30.21 38.36L22.5 38.36L14.79 38.36L18.64 44.94L22.5 51.52L26.35 44.94L30.21 38.36Z" id="lbvxHYKra"></path><path d="M30.21 37.37L22.5 37.37L14.79 37.37L18.64 43.95L22.5 50.53L26.35 43.95L30.21 37.37Z" id="bxxxNYARl"></path></defs><g><g><g><use xlink:href="#bMbCFfJ4F" opacity="1" fill="#ffffff" fill-opacity="1"></use><g><use xlink:href="#bMbCFfJ4F" opacity="1" fill-opacity="0" stroke="#000000" stroke-width="1" stroke-opacity="0"></use></g></g><g><use xlink:href="#b1Asnx7vDG" opacity="1" fill="#000000" fill-opacity="0"></use><g><use xlink:href="#b1Asnx7vDG" opacity="1" fill-opacity="0" stroke="#2d74b2" stroke-width="1" stroke-opacity="1"></use></g></g><g><use xlink:href="#aewebdr7x" opacity="1" fill="#2d74b2" fill-opacity="1"></use><g><use xlink:href="#aewebdr7x" opacity="1" fill-opacity="0" stroke="#000000" stroke-width="1" stroke-opacity="0"></use></g></g><g><use xlink:href="#a2qQn7WHAf" opacity="1" fill="#ffffff" fill-opacity="1"></use><g><use xlink:href="#a2qQn7WHAf" opacity="1" fill-opacity="0" stroke="#000000" stroke-width="1" stroke-opacity="0"></use></g></g><g><use xlink:href="#lbvxHYKra" opacity="1" fill="#000000" fill-opacity="0"></use><g><use xlink:href="#lbvxHYKra" opacity="1" fill-opacity="0" stroke="#2d74b2" stroke-width="1" stroke-opacity="1"></use></g></g><g><use xlink:href="#bxxxNYARl" opacity="1" fill="#ffffff" fill-opacity="1"></use><g><use xlink:href="#bxxxNYARl" opacity="1" fill-opacity="0" stroke="#000000" stroke-width="1" stroke-opacity="0"></use></g></g></g></g></svg>