<?xml version="1.0" encoding="UTF-8" standalone="no"?>
<!DOCTYPE svg PUBLIC "-//W3C//DTD SVG 1.1//EN" "http://www.w3.org/Graphics/SVG/1.1/DTD/svg11.dtd">
<svg version="1.1" xmlns="http://www.w3.org/2000/svg" xmlns:xlink="http://www.w3.org/1999/xlink" preserveAspectRatio="xMidYMid meet" viewBox="0 0 45 55" width="45" height="55"><defs><path d="M30.21 38.36L22.5 38.36L14.79 38.36L18.64 44.94L22.5 51.52L26.35 44.94L30.21 38.36Z" id="bxlVWVGJ4"></path><path d="M30.21 38.36L22.5 38.36L14.79 38.36L18.64 44.94L22.5 51.52L26.35 44.94L30.21 38.36Z" id="guPitE55F"></path><path d="M38.36 9.64L38.36 40.54L6.81 40.54L6.81 9.64L38.36 9.64Z" id="a27kyvEOR3"></path><path d="M38.36 9.64L38.36 40.54L6.81 40.54L6.81 9.64L38.36 9.64Z" id="aEMlbRzDc"></path><path d="M30.21 37.37L22.5 37.37L14.79 37.37L18.64 43.95L22.5 50.53L26.35 43.95L30.21 37.37Z" id="b1sYaibKc"></path><path d="M35.81 12.09L35.81 38.11L9.19 38.11L9.19 12.09L35.81 12.09Z" id="a5iseH15sg"></path></defs><g><g><g><use xlink:href="#bxlVWVGJ4" opacity="1" fill="#ffffff" fill-opacity="1"></use><g><use xlink:href="#bxlVWVGJ4" opacity="1" fill-opacity="0" stroke="#000000" stroke-width="1" stroke-opacity="0"></use></g></g><g><use xlink:href="#guPitE55F" opacity="1" fill="#000000" fill-opacity="0"></use><g><use xlink:href="#guPitE55F" opacity="1" fill-opacity="0" stroke="#4b4b4b" stroke-width="1" stroke-opacity="1"></use></g></g><g><use xlink:href="#a27kyvEOR3" opacity="1" fill="#ffffff" fill-opacity="1"></use><g><use xlink:href="#a27kyvEOR3" opacity="1" fill-opacity="0" stroke="#000000" stroke-width="1" stroke-opacity="0"></use></g></g><g><use xlink:href="#aEMlbRzDc" opacity="1" fill="#000000" fill-opacity="0"></use><g><use xlink:href="#aEMlbRzDc" opacity="1" fill-opacity="0" stroke="#4b4b4b" stroke-width="1" stroke-opacity="1"></use></g></g><g><use xlink:href="#b1sYaibKc" opacity="1" fill="#ffffff" fill-opacity="1"></use><g><use xlink:href="#b1sYaibKc" opacity="1" fill-opacity="0" stroke="#000000" stroke-width="1" stroke-opacity="0"></use></g></g><g><use xlink:href="#a5iseH15sg" opacity="1" fill="#4b4b4b" fill-opacity="1"></use><g><use xlink:href="#a5iseH15sg" opacity="1" fill-opacity="0" stroke="#000000" stroke-width="1" stroke-opacity="0"></use></g></g></g></g></svg>