<?xml version="1.0" encoding="UTF-8" standalone="no"?>
<!DOCTYPE svg PUBLIC "-//W3C//DTD SVG 1.1//EN" "http://www.w3.org/Graphics/SVG/1.1/DTD/svg11.dtd">
<svg version="1.1" xmlns="http://www.w3.org/2000/svg" xmlns:xlink="http://www.w3.org/1999/xlink" preserveAspectRatio="xMidYMid meet" viewBox="0 0 45 55" width="45" height="55"><defs><path d="M22.5 5.39L5.74 15.08L5.74 34.46L22.5 44.14L39.26 34.46L39.26 15.08L22.5 5.39Z" id="b1Hd3vCela"></path><path d="M22.5 38.47L15.1 38.47L18.8 45.05L22.5 51.63L26.19 45.05L29.9 38.47L22.5 38.47Z" id="a2FZjOocDh"></path><path d="M22.5 38.47L15.1 38.47L18.8 45.05L22.5 51.63L26.19 45.05L29.9 38.47L22.5 38.47Z" id="b3N5C47jJ"></path><path d="M22.5 38.47L15.1 38.47L18.8 45.05L22.5 51.63L26.19 45.05L29.9 38.47L22.5 38.47Z" id="afasl44zx"></path><path d="M22.5 38.47L15.1 38.47L18.8 45.05L22.5 51.63L26.19 45.05L29.9 38.47L22.5 38.47Z" id="bdPK24Yv6"></path><path d="M32.62 37.75C22.87 36.61 16.78 35.89 14.35 35.61C14.25 35.6 14.18 35.7 14.23 35.78C15.33 37.77 18.09 42.76 22.5 50.72L25.38 45.6L28.35 40.2L32.62 37.75Z" id="a4NFMwl5dy"></path><path d="M18.77 34.9L10.49 36.68L17.41 40.78L18.77 34.9Z" id="c8TVvCb06C"></path><path d="M22.5 8.32L8.23 16.57L8.23 33.07L22.5 41.32L36.77 33.07L36.77 16.57L22.5 8.32Z" id="f1f6BJ755a"></path></defs><g><g><g><use xlink:href="#b1Hd3vCela" opacity="1" fill="#ffffff" fill-opacity="1"></use><g><use xlink:href="#b1Hd3vCela" opacity="1" fill-opacity="0" stroke="#9accea" stroke-width="1" stroke-opacity="1"></use></g></g><g><use xlink:href="#a2FZjOocDh" opacity="1" fill="#ffffff" fill-opacity="1"></use><g><use xlink:href="#a2FZjOocDh" opacity="1" fill-opacity="0" stroke="#000000" stroke-width="1" stroke-opacity="0"></use></g></g><g><use xlink:href="#b3N5C47jJ" opacity="1" fill="#000000" fill-opacity="0"></use><g><use xlink:href="#b3N5C47jJ" opacity="1" fill-opacity="0" stroke="#000000" stroke-width="1" stroke-opacity="0"></use></g></g><g><use xlink:href="#afasl44zx" opacity="1" fill="#000000" fill-opacity="0"></use><g><use xlink:href="#afasl44zx" opacity="1" fill-opacity="0" stroke="#000000" stroke-width="1" stroke-opacity="0"></use></g></g><g><use xlink:href="#bdPK24Yv6" opacity="1" fill="#000000" fill-opacity="0"></use><g><use xlink:href="#bdPK24Yv6" opacity="1" fill-opacity="0" stroke="#9accea" stroke-width="1" stroke-opacity="1"></use></g></g><g><use xlink:href="#a4NFMwl5dy" opacity="1" fill="#ffffff" fill-opacity="1"></use><g><use xlink:href="#a4NFMwl5dy" opacity="1" fill-opacity="0" stroke="#000000" stroke-width="1" stroke-opacity="0"></use></g></g><g><use xlink:href="#c8TVvCb06C" opacity="1" fill="#ffffff" fill-opacity="1"></use></g><g><use xlink:href="#f1f6BJ755a" opacity="1" fill="#9accea" fill-opacity="1"></use></g></g></g></svg>