<?xml version="1.0" encoding="UTF-8" standalone="no"?>
<!DOCTYPE svg PUBLIC "-//W3C//DTD SVG 1.1//EN" "http://www.w3.org/Graphics/SVG/1.1/DTD/svg11.dtd">
<svg version="1.1" xmlns="http://www.w3.org/2000/svg" xmlns:xlink="http://www.w3.org/1999/xlink" preserveAspectRatio="xMidYMid meet" viewBox="0 0 45 55" width="45" height="55"><defs><path d="M40.39 21.77C40.39 31.64 32.37 39.65 22.5 39.65C12.63 39.65 4.61 31.64 4.61 21.77C4.61 11.9 12.63 3.88 22.5 3.88C32.37 3.88 40.39 11.9 40.39 21.77Z" id="c3Ovh0ixh0"></path><path d="M37.3 21.77C37.3 29.94 30.67 36.57 22.5 36.57C14.33 36.57 7.7 29.94 7.7 21.77C7.7 13.6 14.33 6.96 22.5 6.96C30.67 6.96 37.3 13.6 37.3 21.77Z" id="b4ZdwwIQ2T"></path><path d="M26.35 44.94L30.21 38.36L22.5 38.36L14.79 38.36L18.64 44.94L22.5 51.52L26.35 44.94Z" id="fppM66um"></path><path d="M26.35 43.95L30.21 37.37L22.5 37.37L14.79 37.37L18.64 43.95L22.5 50.53L26.35 43.95Z" id="aNtu9Knmz"></path></defs><g><g><g><use xlink:href="#c3Ovh0ixh0" opacity="1" fill="#ffffff" fill-opacity="1"></use><g><use xlink:href="#c3Ovh0ixh0" opacity="1" fill-opacity="0" stroke="#2d74b2" stroke-width="1" stroke-opacity="1"></use></g></g><g><use xlink:href="#b4ZdwwIQ2T" opacity="1" fill="#2d74b2" fill-opacity="1"></use></g><g><use xlink:href="#fppM66um" opacity="1" fill="#ffffff" fill-opacity="1"></use><g><use xlink:href="#fppM66um" opacity="1" fill-opacity="0" stroke="#2d74b2" stroke-width="1" stroke-opacity="1"></use></g></g><g><use href="#aNtu9Knmz" opacity="1" fill="#ffffff" fill-opacity="1"></use></g></g></g></svg>